<mxfile host="app.diagrams.net" modified="2023-08-30T06:53:57.164Z" agent="Mozilla/5.0 (Windows NT 10.0; Win64; x64) AppleWebKit/537.36 (KHTML, like Gecko) Chrome/116.0.0.0 Safari/537.36" etag="or35XM1I8-LC8l_BV5CF" version="21.6.9" type="github">
  <diagram name="第 1 页" id="zlHumGQmKh7d2wTvnxoP">
    <mxGraphModel dx="1050" dy="566" grid="1" gridSize="10" guides="1" tooltips="1" connect="1" arrows="1" fold="1" page="1" pageScale="1" pageWidth="2339" pageHeight="3300" math="0" shadow="0">
      <root>
        <mxCell id="0" />
        <mxCell id="1" parent="0" />
        <mxCell id="aR5EnWADFdQuWk0eKf3q-1" value="Actor_Encoder" style="rounded=1;whiteSpace=wrap;html=1;" vertex="1" parent="1">
          <mxGeometry x="370" y="280" width="120" height="60" as="geometry" />
        </mxCell>
        <mxCell id="aR5EnWADFdQuWk0eKf3q-2" value="agent_obs" style="ellipse;whiteSpace=wrap;html=1;" vertex="1" parent="1">
          <mxGeometry x="370" y="120" width="110" height="60" as="geometry" />
        </mxCell>
        <mxCell id="aR5EnWADFdQuWk0eKf3q-3" value="global_obs" style="ellipse;whiteSpace=wrap;html=1;" vertex="1" parent="1">
          <mxGeometry x="540" y="120" width="110" height="60" as="geometry" />
        </mxCell>
        <mxCell id="aR5EnWADFdQuWk0eKf3q-4" value="Critic_Encoder" style="rounded=1;whiteSpace=wrap;html=1;" vertex="1" parent="1">
          <mxGeometry x="590" y="280" width="120" height="60" as="geometry" />
        </mxCell>
      </root>
    </mxGraphModel>
  </diagram>
</mxfile>
